<?xml version="1.0" standalone="no"?>
<!DOCTYPE svg PUBLIC "-//W3C//DTD SVG 20010904//EN"
 "http://www.w3.org/TR/2001/REC-SVG-20010904/DTD/svg10.dtd">
<svg version="1.0" xmlns="http://www.w3.org/2000/svg"
 width="512.000000pt" height="512.000000pt" viewBox="0 0 512.000000 512.000000"
 preserveAspectRatio="xMidYMid meet">
<metadata>
Created by potrace 1.14, written by Peter Selinger 2001-2017
</metadata>
<g transform="translate(0.000000,512.000000) scale(0.100000,-0.100000)"
fill="#000000" stroke="none">
<path d="M2365 5084 c-16 -2 -73 -9 -125 -15 -808 -92 -1567 -628 -1940 -1368
-125 -249 -202 -499 -252 -816 -16 -107 -17 -523 0 -640 80 -565 309 -1043
687 -1434 411 -425 913 -679 1505 -762 123 -18 515 -18 635 -1 570 80 1045
310 1444 697 418 406 671 907 753 1495 17 125 17 515 0 640 -82 585 -334 1088
-748 1490 -401 390 -867 618 -1434 700 -76 11 -470 22 -525 14z m-188 -1558
c32 -24 258 -204 503 -399 244 -196 479 -377 522 -403 43 -25 124 -63 180 -82
87 -30 120 -36 214 -40 63 -2 133 0 163 7 67 14 228 77 447 174 241 108 315
124 429 93 98 -26 225 -108 225 -145 0 -20 -931 -767 -1100 -883 -197 -136
-391 -234 -540 -274 -184 -50 -455 7 -789 166 -148 70 -220 93 -323 105 -32 4
-58 11 -58 16 0 5 9 66 20 135 17 106 24 129 43 144 13 10 36 42 52 72 27 47
30 62 30 138 0 68 -5 93 -22 125 -28 53 -100 119 -145 134 l-35 12 13 84 c24
146 43 381 50 613 9 281 13 289 121 208z m-801 -393 c81 -91 474 -591 474
-603 0 -6 23 -10 50 -10 139 0 221 -139 159 -268 -12 -25 -37 -54 -59 -68 -36
-24 -38 -28 -49 -107 -7 -45 -17 -110 -23 -145 l-10 -63 -57 8 c-144 21 -514
-8 -745 -57 -489 -104 -515 -107 -602 -66 -93 43 -145 130 -208 350 -40 137
-49 238 -43 471 6 217 25 357 51 383 11 11 930 235 991 241 6 1 38 -29 71 -66z"/>
<path d="M2480 2156 c-28 -35 11 -93 48 -70 35 22 22 84 -18 84 -10 0 -23 -7
-30 -14z"/>
<path d="M768 2879 c-25 -14 -24 -65 2 -79 14 -8 26 -8 40 0 27 14 27 65 1 80
-23 12 -22 12 -43 -1z"/>
<path d="M1558 2315 c-9 -21 -8 -28 7 -45 31 -34 75 -20 75 25 0 48 -62 63
-82 20z"/>
</g>
</svg>
