<?xml version="1.0" standalone="no"?>
<!DOCTYPE svg PUBLIC "-//W3C//DTD SVG 20010904//EN"
 "http://www.w3.org/TR/2001/REC-SVG-20010904/DTD/svg10.dtd">
<svg version="1.0" xmlns="http://www.w3.org/2000/svg"
 width="700.000000pt" height="700.000000pt" viewBox="0 0 700.000000 700.000000"
 preserveAspectRatio="xMidYMid meet">
<metadata>
Created by potrace 1.14, written by Peter Selinger 2001-2017
</metadata>
<g transform="translate(0.000000,700.000000) scale(0.100000,-0.100000)"
fill="#000000" stroke="none">
<path d="M3265 6954 c-926 -74 -1761 -486 -2356 -1162 -469 -533 -750 -1157
-846 -1877 -24 -183 -24 -647 0 -830 122 -914 558 -1703 1257 -2270 778 -632
1768 -891 2770 -724 1271 212 2345 1159 2720 2400 431 1429 -88 2956 -1302
3827 -466 334 -1001 541 -1590 617 -118 16 -543 28 -653 19z m-295 -2127 c30
-23 334 -265 675 -537 341 -272 649 -514 685 -536 157 -99 346 -173 499 -195
106 -15 274 -6 361 19 83 24 328 124 540 220 308 139 379 160 515 149 130 -10
287 -82 374 -171 43 -44 37 -60 -42 -122 -34 -27 -336 -267 -672 -533 -792
-630 -876 -690 -1165 -834 -168 -84 -299 -130 -436 -153 -85 -15 -111 -15
-194 -5 -274 36 -503 110 -834 271 -152 73 -244 102 -384 121 -48 7 -88 13
-89 13 -1 1 10 83 26 182 l27 180 44 45 c186 190 124 521 -116 620 -30 13 -54
28 -54 34 0 6 9 73 20 150 35 257 51 468 56 750 6 319 8 339 35 366 27 27 59
19 129 -34z m-1095 -538 c74 -79 648 -804 656 -827 3 -9 27 -14 75 -15 59 -2
78 -7 120 -32 94 -59 137 -182 104 -300 -15 -52 -76 -127 -118 -144 l-29 -12
-28 -197 c-15 -108 -30 -200 -34 -204 -3 -4 -24 -3 -46 3 -22 5 -98 12 -170
15 -247 13 -634 -33 -1035 -121 -492 -108 -546 -113 -663 -61 -116 51 -180
147 -261 391 -74 220 -89 324 -90 620 -1 343 29 595 77 641 18 18 141 49 622
159 330 76 623 143 650 150 83 22 94 17 170 -66z"/>
<path d="M3396 2949 c-15 -12 -26 -30 -26 -45 0 -29 33 -64 60 -64 28 0 60 35
60 65 0 27 -31 65 -54 65 -7 0 -25 -9 -40 -21z"/>
<path d="M1040 3930 c-11 -11 -20 -31 -20 -45 0 -30 32 -65 60 -65 27 0 60 35
60 64 0 25 -41 66 -66 66 -8 0 -23 -9 -34 -20z"/>
<path d="M2140 3184 c-8 -8 -13 -28 -13 -44 0 -38 19 -60 54 -60 35 0 59 24
59 60 0 16 -7 36 -16 44 -20 20 -68 21 -84 0z"/>
</g>
</svg>
